<svg version="1.1" viewBox="0.0 0.0 960.0 720.0" fill="none" stroke="none" stroke-linecap="square" stroke-miterlimit="10" xmlns:xlink="http://www.w3.org/1999/xlink" xmlns="http://www.w3.org/2000/svg"><clipPath id="p.0"><path d="m0 0l960.0 0l0 720.0l-960.0 0l0 -720.0z" clip-rule="nonzero"/></clipPath><g clip-path="url(#p.0)"><path fill="#000000" fill-opacity="0.0" d="m0 0l960.0 0l0 720.0l-960.0 0z" fill-rule="evenodd"/><path fill="#ffffff" d="m239.83202 341.52756l0 0c0 -125.799164 106.38701 -227.77953 237.62206 -227.77953l0 0c63.02127 0 123.461395 23.998138 168.02414 66.71507c44.562805 42.71695 69.5979 100.653564 69.5979 161.06445l0 0c0 125.799164 -106.387024 227.77951 -237.62204 227.77951l0 0c-131.23505 0 -237.62206 -101.98035 -237.62206 -227.77951z" fill-rule="evenodd"/><path fill="#ffffff" d="m437.86313 340.00006l0 0c0 -28.623138 17.72528 -51.826782 39.590546 -51.826782l0 0c10.500061 0 20.570068 5.4602966 27.994751 15.179718c7.4246826 9.719391 11.595825 22.901733 11.595825 36.647064l0 0c0 28.623138 -17.725311 51.82675 -39.590576 51.82675l0 0c-21.865265 0 -39.590546 -23.203613 -39.590546 -51.82675z" fill-rule="evenodd"/><path fill="#30a2bf" d="m368.74014 341.52756l0 0c0 -59.803314 49.812744 -108.28346 111.25986 -108.28346l0 0c29.507935 0 57.807312 11.4084015 78.67261 31.7155c20.865234 20.307068 32.58722 47.849396 32.58722 76.56796l0 0c0 59.803314 -49.812683 108.28348 -111.25983 108.28348l0 0c-61.447113 0 -111.25986 -48.480164 -111.25986 -108.28348z" fill-rule="evenodd"/></g></svg>